<svg xmlns="http://www.w3.org/2000/svg" viewBox="0 0 640 512" fill="#666666" fill-opacity="0.2">
  <!-- Motorcycle silhouette -->
  <path d="M512 192c-70.7 0-128 57.3-128 128s57.3 128 128 128 128-57.3 128-128-57.3-128-128-128zm0 208c-44.2 0-80-35.8-80-80s35.8-80 80-80 80 35.8 80 80-35.8 80-80 80z"/>
  <path d="M128 192C57.3 192 0 249.3 0 320s57.3 128 128 128 128-57.3 128-128-57.3-128-128-128zm0 208c-44.2 0-80-35.8-80-80s35.8-80 80-80 80 35.8 80 80-35.8 80-80 80z"/>
  <path d="M480 320h-96l-64-128h-96l-32-64h-64l32 64-32 64h64l32 64h96l64-128h96"/>
  <path d="M352 128h64l48 96"/>
  <path d="M288 128l-32 64"/>
  <ellipse cx="320" cy="240" rx="48" ry="24"/>
  <path d="M256 96h128c17.7 0 32 14.3 32 32v16H224v-16c0-17.7 14.3-32 32-32z"/>
  <rect x="368" y="176" width="16" height="48" rx="4"/>
  <path d="M192 256l48-48h80"/>
</svg>
